<?xml version="1.0" encoding="UTF-8"?>
<svg width="16px" height="16px" viewBox="0 0 16 16" version="1.1" xmlns="http://www.w3.org/2000/svg" xmlns:xlink="http://www.w3.org/1999/xlink">
    <!-- Generator: Sketch 54.1 (76490) - https://sketchapp.com -->
    <title>Shape</title>
    <desc>Created with Sketch.</desc>
    <g id="频道" stroke="none" stroke-width="1" fill="none" fill-rule="evenodd" fill-opacity="0.8">
        <g id="Biu频道页" transform="translate(-1364.000000, -162.000000)" fill="#000000" fill-rule="nonzero">
            <path d="M1379.69449,176.239062 L1376.46489,173.013545 C1376.37699,172.925718 1376.2715,172.855456 1376.16601,172.802759 C1377.0099,171.67857 1377.51975,170.273333 1377.51975,168.745138 C1377.51975,165.02126 1374.49582,162 1370.76866,162 C1367.0415,162 1364,165.02126 1364,168.762703 C1364,172.486581 1367.02392,175.525406 1370.76866,175.525406 C1372.29821,175.525406 1373.70468,175.016008 1374.82986,174.172866 C1374.8826,174.278258 1374.95293,174.383651 1375.04083,174.471478 L1378.27044,177.696996 C1378.6748,178.101001 1379.30771,178.101001 1379.71208,177.696996 C1380.09886,177.275425 1380.09886,176.643068 1379.69449,176.239062 Z M1370.76866,174.1553 C1367.7799,174.1553 1365.35373,171.731266 1365.35373,168.762703 C1365.35373,165.776574 1367.7799,163.352541 1370.76866,163.352541 C1373.75742,163.352541 1376.16601,165.776574 1376.16601,168.762703 C1376.16601,171.731266 1373.73984,174.1553 1370.76866,174.1553 L1370.76866,174.1553 Z" id="Shape"></path>
        </g>
    </g>
</svg>